<?xml version="1.0" encoding="UTF-8"?>
<svg version="1.1" xmlns="http://www.w3.org/2000/svg" width="640" height="634">
<path d="M0 0 C211.2 0 422.4 0 640 0 C640 209.22 640 418.44 640 634 C428.8 634 217.6 634 0 634 C0 424.78 0 215.56 0 0 Z " fill="#F1F0F0" transform="translate(0,0)"/>
<path d="M0 0 C1.79430286 3.72790383 3.58497696 7.45753949 5.375 11.1875 C5.88289063 12.24259766 6.39078125 13.29769531 6.9140625 14.38476562 C7.40390625 15.40634766 7.89375 16.42792969 8.3984375 17.48046875 C8.84880371 18.41785889 9.29916992 19.35524902 9.76318359 20.32104492 C10.93170556 22.85207365 11.99047622 25.40202147 13 28 C3.81503129 35.19018849 -5.39262273 42.34221577 -14.74389648 49.31518555 C-20.38183978 53.52307037 -25.97366271 57.78968555 -31.5625 62.0625 C-39.96516198 68.48221937 -48.43914686 74.79305272 -57 81 C-60.37690221 79.60575041 -61.8272498 78.21310428 -63.69921875 75.09765625 C-64.18189209 74.29924316 -64.66456543 73.50083008 -65.16186523 72.67822266 C-65.66532471 71.81503418 -66.16878418 70.9518457 -66.6875 70.0625 C-67.21351807 69.17095215 -67.73953613 68.2794043 -68.28149414 67.36083984 C-87 35.12672643 -87 35.12672643 -87 24 C-73.54619793 19.9409647 -60.08702888 15.96615531 -46.5 12.375 C-37.2530264 9.92916958 -28.13291971 7.22527988 -19.03125 4.2890625 C-5.72079694 0 -5.72079694 0 0 0 Z " fill="#BF8B2F" transform="translate(215,353)"/>
<path d="M0 0 C3.05717668 10.04766344 4.88815413 20.31707606 6.8125 30.625 C7.16252441 32.4838498 7.51278757 34.34265465 7.86328125 36.20141602 C8.91667225 41.79949644 9.9596226 47.39948845 11 53 C11.15998474 53.85982483 11.31996948 54.71964966 11.48480225 55.60552979 C12.49710802 61.04820222 13.50145607 66.49228735 14.5 71.9375 C14.62960114 72.6405426 14.75920227 73.34358521 14.89273071 74.06793213 C15.25426077 76.03304588 15.61161788 77.99892598 15.96875 79.96484375 C16.16919922 81.0643335 16.36964844 82.16382324 16.57617188 83.29663086 C17 86 17 86 17 89 C6.52280099 90.90818865 -3.60731919 91.28346919 -14.22436523 91.20581055 C-16.826108 91.18740373 -19.42749529 91.18530273 -22.02929688 91.18554688 C-23.7135447 91.18063461 -25.39779015 91.17480756 -27.08203125 91.16796875 C-28.22609184 91.16629951 -28.22609184 91.16629951 -29.39326477 91.16459656 C-42.905398 91.047301 -42.905398 91.047301 -47 89 C-46.33551663 83.08745407 -45.3321996 77.32404692 -44.125 71.5 C-40.74365989 55.05316169 -37.80967059 38.52013487 -34.8125 22 C-34.44079677 19.95311745 -34.06905225 17.9062424 -33.69726562 15.859375 C-32.79770214 10.90633611 -31.89869341 5.95319683 -31 1 C-27.06732611 0.8568968 -23.13462735 0.71449972 -19.2019043 0.57275391 C-17.20685496 0.50069904 -15.21182579 0.42808663 -13.21679688 0.35546875 C-11.33637695 0.28779297 -11.33637695 0.28779297 -9.41796875 0.21875 C-7.68196411 0.1559082 -7.68196411 0.1559082 -5.91088867 0.09179688 C-3.94133398 0.02968561 -1.97053381 0 0 0 Z " fill="#FC6A27" transform="translate(341,430)"/>
<path d="M0 0 C16.32530239 0.6278442 32.57373833 2.10878308 48.83911133 3.58398438 C52.70858817 3.93489281 56.57858284 4.27968473 60.44876003 4.62277222 C63.45409562 4.88982221 66.45915088 5.15992343 69.46412849 5.43096924 C70.89256641 5.559465 72.32108738 5.68704107 73.74969292 5.81365967 C75.73241309 5.98986751 77.71472854 6.17061167 79.69702148 6.3515625 C80.82107895 6.45291504 81.94513641 6.55426758 83.10325623 6.65869141 C85.4958489 6.94059844 87.68925033 7.33892647 90 8 C90.02505615 8.61931396 90.0501123 9.23862793 90.07592773 9.87670898 C90.19322658 12.73044888 90.31533586 15.58396441 90.4375 18.4375 C90.47681641 19.41138672 90.51613281 20.38527344 90.55664062 21.38867188 C90.81368167 27.30061599 91.27719621 33.12645997 92 39 C78.86908054 42.89773816 65.71260678 46.64360612 52.47094727 50.14697266 C41.25960141 53.1432305 30.14367282 56.45689365 19.03173828 59.80004883 C17.62662867 60.21956738 16.22151804 60.63908252 14.81640625 61.05859375 C13.57318604 61.43298584 12.32996582 61.80737793 11.04907227 62.19311523 C8 63 8 63 5 63 C-0.0231089 45.40130641 -5.92731539 17.78194618 0 0 Z " fill="#407F45" transform="translate(119,302)"/>
<path d="M0 0 C4.24779386 0.65350675 7.77763783 2.11490527 11.6875 3.875 C17.34903245 6.38008961 23.01052277 8.42672718 29 10 C28.5167837 15.41202253 27.72264298 20.68174629 26.703125 26.01953125 C26.43166514 27.44933983 26.16043689 28.8791924 25.8894043 30.30908203 C25.74505951 31.06860168 25.60071472 31.82812134 25.45199585 32.61065674 C24.65659977 36.81528443 23.87794678 41.02301647 23.09765625 45.23046875 C22.76110609 47.04232484 22.42451705 48.8541737 22.08789062 50.66601562 C21.5766864 53.41833529 21.06562074 56.1706804 20.55493164 58.9230957 C18.07454972 72.28939888 15.55461549 85.64768329 13 99 C-7.46446704 96.35205857 -28.32498274 87.4740843 -46 77 C-45.43435885 73.34336229 -44.493458 70.7744426 -42.515625 67.65625 C-41.9995166 66.83342529 -41.4834082 66.01060059 -40.95166016 65.1628418 C-40.3901123 64.284104 -39.82856445 63.40536621 -39.25 62.5 C-38.05447254 60.60039568 -36.85916599 58.70065233 -35.6640625 56.80078125 C-35.05208008 55.83350098 -34.44009766 54.8662207 -33.80957031 53.86962891 C-31.05064657 49.49450888 -28.33972015 45.09012469 -25.625 40.6875 C-20.74641697 32.80174608 -15.84731884 24.92883952 -10.9375 17.0625 C-10.30602051 16.04953857 -9.67454102 15.03657715 -9.02392578 13.99291992 C-6.08059012 9.28239124 -3.11877966 4.59650568 0 0 Z " fill="#DD1468" transform="translate(269,418)"/>
<path d="M0 0 C3.05122019 1.48251377 4.93947079 3.67317324 7.26171875 6.1328125 C11.86758667 10.91976182 16.68148864 15.10640528 22.07421875 19.0078125 C21.41968362 22.33091017 20.174402 24.81442244 18.44921875 27.71875 C17.91232422 28.62633057 17.37542969 29.53391113 16.82226562 30.46899414 C16.24541016 31.4305542 15.66855469 32.39211426 15.07421875 33.3828125 C14.48189453 34.37724365 13.88957031 35.3716748 13.27929688 36.39624023 C9.45294138 42.79063698 5.51822089 49.0918872 1.4453125 55.33203125 C-1.56726872 59.96787749 -4.45967731 64.67826029 -7.36328125 69.3828125 C-12.85350004 78.27717603 -18.37590746 87.15056471 -23.92578125 96.0078125 C-33.36540193 92.7237186 -41.39637205 84.79749731 -48.6328125 78.11328125 C-50.66667579 76.24573046 -52.74725148 74.4679703 -54.86328125 72.6953125 C-58.41073628 69.59855872 -61.65207588 66.25870378 -64.86328125 62.8203125 C-65.34853271 62.30879639 -65.83378418 61.79728027 -66.33374023 61.27026367 C-68.8226199 58.5568568 -70.2153016 56.60248403 -70.92578125 53.0078125 C-53.66893612 39.51661986 -36.28298735 26.19918128 -18.70751953 13.12524414 C-13.57806904 9.29705643 -8.60204647 5.36922299 -3.80078125 1.1328125 C-1.92578125 0.0078125 -1.92578125 0.0078125 0 0 Z " fill="#FC9D25" transform="translate(235.92578125,390.9921875)"/>
<path d="M0 0 C4.53621906 0.80307663 8.29390173 2.41605603 12.375 4.5 C13.07471924 4.85529785 13.77443848 5.2105957 14.49536133 5.57666016 C29.31100963 13.20507914 42.23317778 22.30090976 55 33 C47.26181332 42.12709199 39.16704198 50.9247011 31.04296875 59.70703125 C28.16605238 62.81782841 25.29950383 65.93798345 22.4375 69.0625 C21.98777832 69.55347168 21.53805664 70.04444336 21.07470703 70.55029297 C20.16937398 71.53884515 19.26410037 72.52745177 18.35888672 73.51611328 C16.07357504 76.01164407 13.78670452 78.50574557 11.5 81 C10.59764887 81.98436823 9.69530514 82.96874326 8.79296875 83.953125 C4.1953125 88.96875 -0.40234375 93.984375 -5 99 C-9.36232549 97.46907068 -13.04710683 95.16585751 -16.875 92.625 C-21.49954457 89.57584973 -26.16586325 86.70761112 -31 84 C-30.35916749 78.61657534 -28.61695504 73.98584727 -26.640625 68.984375 C-26.29948166 68.10720825 -25.95833832 67.2300415 -25.6068573 66.32629395 C-24.49307793 63.46548147 -23.37150433 60.60779182 -22.25 57.75 C-21.48119117 55.77857798 -20.7130485 53.80689604 -19.94555664 51.83496094 C-18.77685261 48.83225734 -17.60779854 45.82969721 -16.43666077 42.82794189 C-12.72729956 33.31829928 -9.0748813 23.78736094 -5.4375 14.25 C-4.87863399 12.78611248 -4.31971638 11.32224465 -3.76074219 9.85839844 C-2.50627135 6.57260478 -1.2527808 3.28643846 0 0 Z " fill="#DDA63B" transform="translate(404,126)"/>
<path d="M0 0 C4.35626145 4.29716488 8.55938711 8.72916035 12.75 13.1875 C13.46373779 13.94635498 14.17747559 14.70520996 14.9128418 15.48706055 C19.28594172 20.14675799 23.61106765 24.84270257 27.86328125 29.61328125 C30.38542237 32.43051749 32.94089007 35.21641443 35.5 38 C39.57996145 42.44030995 43.62488017 46.91048353 47.65234375 51.3984375 C52.07026753 56.29417333 56.53722673 61.14517002 61 66 C57.71652186 70.45259536 54.35505607 74.8238071 50.875 79.125 C48.03895943 82.64560208 45.41320148 86.17909766 43 90 C39.30286345 89.40101739 36.36104817 88.36202669 33.02392578 86.67431641 C31.57422897 85.94687729 31.57422897 85.94687729 30.09524536 85.20474243 C29.05576752 84.67569305 28.01628967 84.14664368 26.9453125 83.6015625 C25.85274139 83.05196869 24.76017029 82.50237488 23.63449097 81.93612671 C20.12844227 80.17140691 16.6265255 78.39867534 13.125 76.625 C8.56672361 74.32229898 4.00630546 72.02387698 -0.5546875 69.7265625 C-1.67220398 69.161651 -2.78972046 68.5967395 -3.94110107 68.01470947 C-9.52485181 65.20276249 -15.1269852 62.44884747 -20.79003906 59.79980469 C-22.39384933 59.04816544 -22.39384933 59.04816544 -24.03005981 58.28134155 C-26.05373074 57.33862312 -28.08163537 56.40492455 -30.11422729 55.4815979 C-31.00868561 55.06534149 -31.90314392 54.64908508 -32.82470703 54.22021484 C-33.6104007 53.86180511 -34.39609436 53.50339539 -35.20559692 53.13412476 C-37 52 -37 52 -38 49 C-36.79933975 46.56549542 -35.55947089 44.35386794 -34.125 42.0625 C-33.7129834 41.39299316 -33.3009668 40.72348633 -32.87646484 40.03369141 C-23.72720114 25.38860048 -12.4773679 11.92281821 0 0 Z " fill="#5FBA47" transform="translate(182,166)"/>
<path d="M0 0 C4.12501641 0.74593647 7.70096068 2.69905874 11.41479492 4.55419922 C12.1550441 4.92016205 12.89529327 5.28612488 13.65797424 5.66317749 C16.10099708 6.87265299 18.54092174 8.08821788 20.98046875 9.3046875 C22.67626412 10.14810278 24.37209077 10.99145519 26.06794739 11.83474731 C29.619302 13.60218345 33.16888647 15.37312215 36.7175293 17.14599609 C41.27277949 19.42092192 45.83435822 21.68283838 50.39760876 23.94166374 C53.90016264 25.67810196 57.39820659 27.42347401 60.89504433 29.17139053 C62.57559196 30.00955595 64.25779463 30.84441123 65.94164085 31.67593002 C68.29037154 32.83692917 70.63250431 34.01029093 72.97338867 35.18701172 C73.67416534 35.52998291 74.37494202 35.8729541 75.09695435 36.22631836 C79.88586153 38.65758458 79.88586153 38.65758458 81 42 C80.59448242 43.85009766 80.59448242 43.85009766 79.85546875 45.9140625 C79.59056641 46.67589844 79.32566406 47.43773437 79.05273438 48.22265625 C78.76720703 49.01542969 78.48167969 49.80820312 78.1875 50.625 C76.02170475 56.70961066 74.29571102 62.66681734 73 69 C53.08985248 67.88722081 33.23641971 66.20281576 13.375 64.4375 C12.1058374 64.32572418 10.8366748 64.21394836 9.52905273 64.0987854 C5.88100129 63.77663351 2.23340899 63.44974023 -1.4140625 63.12109375 C-2.52331085 63.02321564 -3.6325592 62.92533752 -4.77542114 62.82449341 C-5.80037689 62.73086517 -6.82533264 62.63723694 -7.88134766 62.54077148 C-9.22454575 62.41991432 -9.22454575 62.41991432 -10.59487915 62.2966156 C-12.80262655 62.02434141 -14.85905305 61.59408526 -17 61 C-16.50763355 53.32207313 -15.33210722 46.07774087 -13.4375 38.625 C-13.17936523 37.59785889 -12.92123047 36.57071777 -12.65527344 35.51245117 C-9.91407468 25.02197049 -6.110478 15.01867699 -2 5 C-1.33260512 3.3336248 -0.66549568 1.66713458 0 0 Z " fill="#0B97D9" transform="translate(137,228)"/>
<path d="M0 0 C3.65862057 1.31231816 6.45359409 2.89389437 9.51953125 5.2734375 C10.36837891 5.92699219 11.21722656 6.58054687 12.09179688 7.25390625 C12.98962891 7.95386719 13.88746094 8.65382813 14.8125 9.375 C16.71444915 10.84165769 18.6167961 12.30779965 20.51953125 13.7734375 C21.45490723 14.4962793 22.3902832 15.21912109 23.35400391 15.96386719 C26.8781972 18.67578563 30.43453886 21.34271798 34 24 C38.45413016 27.32546614 42.88952175 30.67369101 47.3046875 34.05078125 C48.22765625 34.75654297 49.150625 35.46230469 50.1015625 36.18945312 C51.89201652 37.56003306 53.68117506 38.93230778 55.46875 40.30664062 C61.20580586 44.69824143 67.04913518 48.90293031 73 53 C71.33428235 56.52275831 69.34543208 59.00711362 66.6875 61.875 C64.18879709 64.59253836 61.72072352 67.28655505 59.4375 70.1875 C56.86877043 73.15141873 54.13785715 75.61965884 51.15625 78.15625 C48.9778209 80.01896473 46.86655731 81.94249116 44.75 83.875 C30.00367647 97 30.00367647 97 26 97 C24.30318189 94.46868118 22.73187252 91.93562419 21.1875 89.3125 C20.18564942 87.64147505 19.18301474 85.97092 18.1796875 84.30078125 C17.65600586 83.42502441 17.13232422 82.54926758 16.59277344 81.64697266 C14.0406335 77.40566346 11.42568382 73.20387013 8.8125 69 C7.72232158 67.2410928 6.63248832 65.48197163 5.54296875 63.72265625 C4.97626465 62.80758301 4.40956055 61.89250977 3.82568359 60.94970703 C0.76916832 56.01137893 -2.28440086 51.07125627 -5.33242798 46.12768555 C-6.33934215 44.49530741 -7.3477445 42.86384753 -8.35620117 41.23242188 C-12.67951837 34.21645926 -16.87928134 27.13679164 -21 20 C-19.8713855 19.1018457 -19.8713855 19.1018457 -18.7199707 18.18554688 C-8.05143407 10.26756351 -8.05143407 10.26756351 0 0 Z " fill="#FBC30C" transform="translate(413,389)"/>
<path d="M0 0 C0 30.03 0 60.06 0 91 C-8.415 91.99 -8.415 91.99 -17 93 C-20.0065084 93.63667237 -23.00984704 94.29047218 -26 95 C-27.32 95 -28.64 95 -30 95 C-39.39169941 71.78325238 -48.49230308 48.43992519 -57.3125 25 C-57.67915771 24.02836914 -58.04581543 23.05673828 -58.42358398 22.05566406 C-58.75430908 21.17104492 -59.08503418 20.28642578 -59.42578125 19.375 C-59.84984253 18.24191406 -59.84984253 18.24191406 -60.2824707 17.0859375 C-60.97463465 15.07373988 -61.51812738 13.07161285 -62 11 C-45.49248364 5.77374738 -29.38278019 2.15448533 -12.15625 0.33203125 C-11.54587891 0.26733643 -10.93550781 0.2026416 -10.30664062 0.13598633 C-6.87675003 -0.06622039 -3.4358459 0 0 0 Z " fill="#1A496A" transform="translate(319,109)"/>
<path d="M0 0 C9.80946419 15.59520714 16 40.62692726 16 59 C0.21694371 60.72090198 -15.58607184 62.22804375 -31.39257812 63.71435547 C-35.0539461 64.05882408 -38.71491718 64.40734489 -42.37582016 64.75671577 C-45.22902093 65.02828315 -48.08249137 65.29692956 -50.93604279 65.564785 C-52.9363787 65.7532895 -54.93642496 65.94485971 -56.9364624 66.13650513 C-58.15593567 66.25017426 -59.37540894 66.36384338 -60.63183594 66.48095703 C-61.69593689 66.58151398 -62.76003784 66.68207092 -63.85638428 66.78567505 C-67.24642479 67.01680071 -70.60313381 67.03552396 -74 67 C-74.13575439 66.44127197 -74.27150879 65.88254395 -74.41137695 65.30688477 C-75.04119204 62.72445634 -75.6768152 60.14348956 -76.3125 57.5625 C-76.63250977 56.24475586 -76.63250977 56.24475586 -76.95898438 54.90039062 C-77.17490234 54.02705078 -77.39082031 53.15371094 -77.61328125 52.25390625 C-77.80704346 51.46314697 -78.00080566 50.6723877 -78.20043945 49.85766602 C-79.32021195 45.85554783 -80.66066598 41.9332277 -82 38 C-71.90622684 32.88366952 -61.80604781 27.78024112 -51.69743729 22.69328213 C-47.00403846 20.33091229 -42.31298103 17.96412002 -37.62695312 15.5871582 C-33.106436 13.29435554 -28.58019361 11.01325417 -24.04970551 8.74022102 C-22.3204015 7.87001663 -20.59321903 6.99558322 -18.86820221 6.11691093 C-16.45566426 4.8889337 -14.0360885 3.67607458 -11.61425781 2.46655273 C-10.54179306 1.91414162 -10.54179306 1.91414162 -9.44766235 1.35057068 C-3.75439986 -1.46058326 -3.75439986 -1.46058326 0 0 Z " fill="#C51B2E" transform="translate(513,231)"/>
<path d="M0 0 C4.21265586 4.84559184 7.33522788 10.326134 10.625 15.8125 C11.88598807 17.9001811 13.14770933 19.98741951 14.41015625 22.07421875 C15.0252002 23.09177246 15.64024414 24.10932617 16.27392578 25.15771484 C18.50594319 28.83312455 20.7747999 32.48406633 23.0625 36.125 C23.85162846 37.38277112 24.64068963 38.64058446 25.4296875 39.8984375 C25.83541992 40.54522461 26.24115234 41.19201172 26.65917969 41.85839844 C41.36803475 65.3518574 41.36803475 65.3518574 48 77 C31.77271753 86.95343917 8.39978726 100 -11 100 C-11.19110352 98.98389648 -11.38220703 97.96779297 -11.57910156 96.92089844 C-12.46799267 92.1969998 -13.35865094 87.47343542 -14.25 82.75 C-14.41095154 81.8968924 -14.57190308 81.04378479 -14.73773193 80.16482544 C-16.48469345 70.91221767 -18.23863042 61.66289971 -20.125 52.4375 C-21.77826145 44.31197264 -23.27743514 36.16007608 -24.75 28 C-24.97316895 26.77466553 -25.19633789 25.54933105 -25.42626953 24.28686523 C-25.63106934 23.14032471 -25.83586914 21.99378418 -26.046875 20.8125 C-26.23088867 19.78769531 -26.41490234 18.76289063 -26.60449219 17.70703125 C-27 15 -27 15 -27 11 C-26.46632813 10.80889648 -25.93265625 10.61779297 -25.3828125 10.42089844 C-22.9200095 9.53569546 -20.46002331 8.64289735 -18 7.75 C-17.16082031 7.44964844 -16.32164062 7.14929688 -15.45703125 6.83984375 C-10.09416655 4.8859318 -5.05822598 2.64620155 0 0 Z " fill="#A21A43" transform="translate(381,416)"/>
<path d="M0 0 C16.35987599 13.22713378 27.40613036 31.11131877 38 49 C35.2360221 52.32977702 31.52692761 53.95449958 27.73046875 55.84472656 C26.99357819 56.21740662 26.25668762 56.59008667 25.49746704 56.97406006 C23.06391429 58.2025245 20.62599041 59.42199448 18.1875 60.640625 C16.49491713 61.490466 14.80245455 62.3405466 13.11010742 63.19085693 C9.56473048 64.97026781 6.01701372 66.74491003 2.46777344 68.51660156 C-2.08758593 70.79132732 -6.63546376 73.08059148 -11.18153381 75.37381363 C-14.67299667 77.13244411 -18.16898503 78.88192011 -21.66635132 80.62877655 C-23.34571387 81.46930652 -25.0234774 82.313039 -26.69961548 83.15998077 C-29.03860179 84.34049396 -31.3835414 85.50822443 -33.73046875 86.67285156 C-34.42562592 87.02706177 -35.12078308 87.38127197 -35.83700562 87.74621582 C-40.6574572 90.11418093 -40.6574572 90.11418093 -44 89 C-45.5078125 86.84765625 -45.5078125 86.84765625 -47.125 84.0625 C-50.32695417 78.78545966 -54.01575597 74.54348047 -58.375 70.19140625 C-60 68 -60 68 -59.79296875 66.08422852 C-58.86660066 63.64937495 -57.74490374 62.33164155 -55.9375 60.4609375 C-55.31012939 59.80327393 -54.68275879 59.14561035 -54.03637695 58.46801758 C-53.36437256 57.77732178 -52.69236816 57.08662598 -52 56.375 C-50.61776037 54.92908216 -49.23624676 53.48246992 -47.85546875 52.03515625 C-47.18692871 51.33793457 -46.51838867 50.64071289 -45.82958984 49.92236328 C-43.6116897 47.59199955 -41.45294797 45.21407471 -39.3125 42.8125 C-35.44854522 38.48458067 -31.52300126 34.21745432 -27.58349609 29.95849609 C-24.19283286 26.2927109 -20.81035658 22.61967634 -17.4375 18.9375 C-16.55191406 17.97070312 -15.66632813 17.00390625 -14.75390625 16.0078125 C-13.83591875 15.0052255 -12.91795069 14.0026207 -12 13 C-9.95862759 10.77056363 -7.91689934 8.54145376 -5.875 6.3125 C-5.40118896 5.79486084 -4.92737793 5.27722168 -4.43920898 4.74389648 C-1.11283235 1.11283235 -1.11283235 1.11283235 0 0 Z " fill="#4D9F39" transform="translate(468,168)"/>
<path d="M0 0 C3.60318502 19.57250103 -0.07409291 42.87233196 -5 62 C-13.50692281 60.51590235 -21.74364544 58.18676302 -30.02734375 55.7890625 C-31.46636607 55.3752764 -32.90545948 54.96173745 -34.34461975 54.5484314 C-37.34663835 53.68529816 -40.34780839 52.81929161 -43.34838867 51.95117188 C-47.16360267 50.84759926 -50.9808088 49.75111012 -54.79868221 48.65677834 C-57.76718668 47.80506602 -60.73460524 46.94961913 -63.7017231 46.09309006 C-65.10738684 45.68776661 -66.51336784 45.2835415 -67.91969109 44.88051224 C-69.89800746 44.31293438 -71.87480269 43.74031675 -73.85131836 43.16650391 C-75.52815956 42.68257675 -75.52815956 42.68257675 -77.23887634 42.18887329 C-82.2118724 40.6169329 -87.09848522 38.78236901 -92 37 C-91.34 27.43 -90.68 17.86 -90 8 C-73.7256081 5.99147027 -57.4547594 4.17245703 -41.12915039 2.63745117 C-37.64339823 2.30833603 -34.15864243 1.96974512 -30.67382812 1.63085938 C-28.41151242 1.41609617 -26.14914442 1.20188293 -23.88671875 0.98828125 C-22.86777023 0.88832352 -21.84882172 0.78836578 -20.79899597 0.68537903 C-13.84898593 0.04380281 -6.97776218 -0.10984386 0 0 Z " fill="#FE3C23" transform="translate(530,303)"/>
<path d="M0 0 C1.10417921 2.50089915 2.10008106 4.98092895 3.0546875 7.5390625 C3.35248611 8.31984665 3.65028473 9.1006308 3.95710754 9.90507507 C4.93614483 12.47599943 5.90546659 15.05047832 6.875 17.625 C7.54846837 19.39767101 8.22270912 21.17004877 8.89770508 22.94213867 C10.27089477 26.54847372 11.64110052 30.15592055 13.00927734 33.76416016 C15.61918567 40.63875232 18.26934549 47.49760982 20.92803955 54.35345459 C21.6671874 56.2601032 22.40482218 58.16733072 23.14208984 60.07470703 C23.82005615 61.82630127 23.82005615 61.82630127 24.51171875 63.61328125 C24.93243652 64.70205566 25.3531543 65.79083008 25.78662109 66.91259766 C27.23621131 70.60103183 28.75730196 74.25765481 30.31176758 77.90307617 C31 80 31 80 31 84 C30.01 84.50789063 29.02 85.01578125 28 85.5390625 C20.88590914 89.23338477 14.23780633 92.9079132 8 98 C1.33848527 95.01030058 -3.10745916 88.93079571 -7.78515625 83.5 C-10.79230711 80.10568509 -13.89705017 76.80662774 -17 73.5 C-21.1388629 69.08657408 -25.23018809 64.6549073 -29.1796875 60.0703125 C-33.16589191 55.53664654 -37.3112919 51.14341559 -41.4140625 46.71533203 C-44.03481077 43.8807604 -46.64271751 41.03445389 -49.25 38.1875 C-49.72791992 37.66575195 -50.20583984 37.14400391 -50.69824219 36.60644531 C-51.79902573 35.40447781 -52.89954522 34.20226851 -54 33 C-52.46485117 28.53031496 -48.88072811 26.36966863 -45.1875 23.75 C-44.51315918 23.26547363 -43.83881836 22.78094727 -43.14404297 22.28173828 C-6.92905067 -3.46452534 -6.92905067 -3.46452534 0 0 Z " fill="#01699D" transform="translate(246,126)"/>
<path d="M0 0 C19.93217549 1.17248091 19.93217549 1.17248091 28.5625 2.75 C29.52849121 2.92192871 30.49448242 3.09385742 31.48974609 3.27099609 C41.69162336 5.1746471 51.37308277 8.11695955 61 12 C55.85215795 27.08806739 50.23439776 41.96313037 44.4375 56.8125 C43.60452675 58.95496503 42.7718434 61.09754278 41.93945312 63.24023438 C37.68390566 74.18347731 33.3929537 85.11111774 29 96 C24.14916342 95.0439619 19.31040682 94.0820154 14.5 92.9375 C9.7262068 91.94295975 4.85209068 91.48520907 0 91 C0 60.97 0 30.94 0 0 Z " fill="#E5253C" transform="translate(332,109)"/>
<path d="M0 0 C6.62163649 0.60906562 12.64687643 2.2000945 19 4.125 C21.14710134 4.7631355 23.29423774 5.40115306 25.44140625 6.0390625 C26.53211426 6.36551758 27.62282227 6.69197266 28.74658203 7.02832031 C33.80438261 8.53890461 38.87034856 10.02113687 43.9375 11.5 C44.91058105 11.78464111 45.88366211 12.06928223 46.88623047 12.36254883 C55.50612285 14.87556485 64.1503223 17.29911294 72.80444336 19.69140625 C77.57979291 21.01639485 82.31961276 22.36266317 87 24 C80.99002614 43.46411988 73.20383808 63.179185 60 79 C55.36738477 77.50784678 52.05215874 74.8223564 48.375 71.75 C42.66035608 67.07657756 36.83883255 62.60067996 30.875 58.25 C22.09568728 51.83721436 13.44152036 45.27092733 4.8046875 38.66796875 C-0.76867354 34.40734151 -6.37518127 30.19241147 -12 26 C-10.23163715 21.36725775 -8.12172392 16.91541371 -6 12.4375 C-5.64421875 11.68275391 -5.2884375 10.92800781 -4.921875 10.15039062 C-3.31540455 6.74862949 -1.6912865 3.36059001 0 0 Z " fill="#27BDE2" transform="translate(434,353)"/>
</svg>
